# xmcd
#
# Track frame offsets:
#	150
#	10381
#	21525
#	36197
#	48217
#	56767
#	77510
#	88957
#	100585
#	109697
#	123146
#	136011
#	148203
#	161863
#	174613
#	185018
#	193560
#	207346
#	217508
#
# Disc length: 3132 seconds
#
# Revision: 0
# Processed by: cddbd v1.5.2PL0 Copyright (c) Steve Scherf et al.
# Submitted via: dBpowerAMP V4.0
#
DISCID=070c3a13
DTITLE=The Lonly Blue Boys - Komplit2
DYEAR=1900
DGENRE=Country
TTITLE0=01 Mamma grét
TTITLE1=02 Út og suður þrumustuð
TTITLE2=03 Hinn gullni meðalvegur
TTITLE3=04 Japanska stúlkan
TTITLE4=05 Erfiði og strit
TTITLE5=06 Allan sólarhringinn
TTITLE6=07 Lónlí blú boj
TTITLE7=08 Alli fantur
TTITLE8=09 Taktu boð mín til Stínu
TTITLE9=10 Fagra litla diskó dís
TTITLE10=11 Atvinnulaus
TTITLE11=12 Djús í glas
TTITLE12=13 Vaxtarlag
TTITLE13=14 Hringferð í kringum landið
TTITLE14=15 Hamingjan
TTITLE15=16 Í Akureyrarbæ
TTITLE16=17 Allir halda aðra vera sjálfa sig
TTITLE17=18 La kúba libra
TTITLE18=19 Laugardagskvöld
EXTD=
EXTT0=
EXTT1=
EXTT2=
EXTT3=
EXTT4=
EXTT5=
EXTT6=
EXTT7=
EXTT8=
EXTT9=
EXTT10=
EXTT11=
EXTT12=
EXTT13=
EXTT14=
EXTT15=
EXTT16=
EXTT17=
EXTT18=
PLAYORDER=
